<svg viewBox="0 0 32 32" fill="none" xmlns="http://www.w3.org/2000/svg">
  <!-- Background circle -->
  <circle cx="16" cy="16" r="16" fill="url(#blueGradient)" />
  
  <!-- Hexagonal Speech Bubble -->
  <path
    d="M8 10.5 L13 8 L22 8 L27 10.5 L27 18.5 L22 21 L13 21 L8 18.5 Z M13 21 L16 24 L19 21"
    stroke="white"
    strokeWidth="1.5"
    fill="none"
  />
  
  <!-- 3D Cube inside speech bubble -->
  <g transform="translate(10.5, 9.5)">
    <!-- Back face -->
    <path
      d="M2.5 2.5 L7.5 2.5 L7.5 7.5 L2.5 7.5 Z"
      stroke="white"
      strokeWidth="1"
      fill="none"
    />
    <!-- Front face -->
    <path
      d="M5 0 L10 0 L10 5 L5 5 Z"
      stroke="white"
      strokeWidth="1"
      fill="none"
    />
    <!-- Connecting lines -->
    <line x1="2.5" y1="2.5" x2="5" y2="0" stroke="white" strokeWidth="1" />
    <line x1="7.5" y1="2.5" x2="10" y2="0" stroke="white" strokeWidth="1" />
    <line x1="7.5" y1="7.5" x2="10" y2="5" stroke="white" strokeWidth="1" />
    <line x1="2.5" y1="7.5" x2="5" y2="5" stroke="white" strokeWidth="1" />
  </g>
  
  <!-- Circuit board lines -->
  <g transform="translate(27, 8)">
    <line x1="0" y1="0" x2="4" y2="0" stroke="white" strokeWidth="1.5" />
    <circle cx="5" cy="0" r="0.8" fill="white" />
  </g>
  <g transform="translate(27, 13)">
    <line x1="0" y1="0" x2="4" y2="0" stroke="white" strokeWidth="1.5" />
    <circle cx="5" cy="0" r="0.8" fill="white" />
  </g>
  <g transform="translate(27, 18)">
    <line x1="0" y1="0" x2="4" y2="0" stroke="white" strokeWidth="1.5" />
    <circle cx="5" cy="0" r="0.8" fill="white" />
  </g>
  
  <!-- Gradient definition -->
  <defs>
    <linearGradient id="blueGradient" x1="0%" y1="0%" x2="100%" y2="100%">
      <stop offset="0%" stopColor="#3B82F6" />
      <stop offset="100%" stopColor="#1D4ED8" />
    </linearGradient>
  </defs>
</svg> 